<svg xmlns="http://www.w3.org/2000/svg" xmlns:xlink="http://www.w3.org/1999/xlink" width="227" zoomAndPan="magnify" viewBox="0 0 170.25 67.499998" height="90" preserveAspectRatio="xMidYMid meet" version="1.0"><defs><g/></defs><g fill="#000000" fill-opacity="1"><g transform="translate(3.951515, 47.647055)"><g><path d="M 10.296875 0 C 8.410156 0 6.929688 -0.539062 5.859375 -1.625 C 4.785156 -2.707031 4.25 -4.179688 4.25 -6.046875 L 4.25 -26.609375 L 8.09375 -26.609375 L 8.09375 -6.296875 C 8.09375 -5.378906 8.347656 -4.648438 8.859375 -4.109375 C 9.378906 -3.566406 10.097656 -3.296875 11.015625 -3.296875 L 15.3125 -3.296875 L 15.3125 0 Z M 0.578125 -17.984375 L 0.578125 -21.28125 L 15.390625 -21.28125 L 15.390625 -17.984375 Z M 0.578125 -17.984375 "/></g></g></g><g fill="#000000" fill-opacity="1"><g transform="translate(20.006852, 47.647055)"><g><path d="M 11.890625 0.5 C 9.828125 0.5 8.046875 0.00390625 6.546875 -0.984375 C 5.046875 -1.972656 3.890625 -3.3125 3.078125 -5 C 2.273438 -6.695312 1.875 -8.578125 1.875 -10.640625 C 1.875 -12.722656 2.316406 -14.601562 3.203125 -16.28125 C 4.097656 -17.96875 5.378906 -19.304688 7.046875 -20.296875 C 8.710938 -21.285156 10.71875 -21.78125 13.0625 -21.78125 C 15.3125 -21.78125 17.242188 -21.289062 18.859375 -20.3125 C 20.472656 -19.34375 21.71875 -18.019531 22.59375 -16.34375 C 23.46875 -14.675781 23.90625 -12.816406 23.90625 -10.765625 L 23.90625 0 L 20.03125 0 L 20.03125 -4.34375 L 19.9375 -4.34375 C 19.519531 -3.53125 18.957031 -2.753906 18.25 -2.015625 C 17.539062 -1.285156 16.65625 -0.679688 15.59375 -0.203125 C 14.539062 0.265625 13.304688 0.5 11.890625 0.5 Z M 12.890625 -2.796875 C 14.285156 -2.796875 15.515625 -3.132812 16.578125 -3.8125 C 17.648438 -4.5 18.484375 -5.445312 19.078125 -6.65625 C 19.679688 -7.863281 19.984375 -9.21875 19.984375 -10.71875 C 19.984375 -12.195312 19.695312 -13.519531 19.125 -14.6875 C 18.550781 -15.851562 17.738281 -16.773438 16.6875 -17.453125 C 15.632812 -18.140625 14.394531 -18.484375 12.96875 -18.484375 C 11.46875 -18.484375 10.179688 -18.132812 9.109375 -17.4375 C 8.046875 -16.738281 7.226562 -15.796875 6.65625 -14.609375 C 6.082031 -13.429688 5.796875 -12.09375 5.796875 -10.59375 C 5.796875 -9.144531 6.070312 -7.828125 6.625 -6.640625 C 7.1875 -5.460938 7.992188 -4.523438 9.046875 -3.828125 C 10.109375 -3.140625 11.390625 -2.796875 12.890625 -2.796875 Z M 12.890625 -2.796875 "/></g></g></g><g fill="#000000" fill-opacity="1"><g transform="translate(46.029176, 47.647055)"><g><path d="M 13.8125 -21.78125 C 15.425781 -21.78125 16.898438 -21.519531 18.234375 -21 C 19.566406 -20.488281 20.71875 -19.734375 21.6875 -18.734375 C 22.664062 -17.734375 23.425781 -16.53125 23.96875 -15.125 C 24.507812 -13.71875 24.78125 -12.140625 24.78125 -10.390625 C 24.78125 -8.191406 24.328125 -6.269531 23.421875 -4.625 C 22.515625 -2.988281 21.28125 -1.722656 19.71875 -0.828125 C 18.164062 0.0546875 16.40625 0.5 14.4375 0.5 C 13.351562 0.5 12.316406 0.320312 11.328125 -0.03125 C 10.335938 -0.394531 9.457031 -0.90625 8.6875 -1.5625 C 7.925781 -2.21875 7.3125 -2.960938 6.84375 -3.796875 L 6.765625 -3.796875 L 6.765625 9.171875 L 2.921875 9.171875 L 2.921875 -10.515625 C 2.921875 -12.898438 3.398438 -14.925781 4.359375 -16.59375 C 5.316406 -18.269531 6.613281 -19.550781 8.25 -20.4375 C 9.894531 -21.332031 11.75 -21.78125 13.8125 -21.78125 Z M 13.8125 -18.484375 C 12.53125 -18.484375 11.351562 -18.160156 10.28125 -17.515625 C 9.207031 -16.878906 8.359375 -15.976562 7.734375 -14.8125 C 7.109375 -13.644531 6.796875 -12.269531 6.796875 -10.6875 C 6.796875 -9.070312 7.109375 -7.671875 7.734375 -6.484375 C 8.359375 -5.304688 9.207031 -4.394531 10.28125 -3.75 C 11.351562 -3.113281 12.539062 -2.796875 13.84375 -2.796875 C 15.1875 -2.796875 16.382812 -3.128906 17.4375 -3.796875 C 18.5 -4.460938 19.34375 -5.378906 19.96875 -6.546875 C 20.59375 -7.710938 20.90625 -9.078125 20.90625 -10.640625 C 20.90625 -12.253906 20.582031 -13.644531 19.9375 -14.8125 C 19.300781 -15.976562 18.445312 -16.878906 17.375 -17.515625 C 16.300781 -18.160156 15.113281 -18.484375 13.8125 -18.484375 Z M 13.8125 -18.484375 "/></g></g></g><g fill="#000000" fill-opacity="1"><g transform="translate(71.759583, 47.647055)"><g><path d="M 1.796875 0 L 9.09375 -9.796875 C 7.789062 -10.242188 6.644531 -10.890625 5.65625 -11.734375 C 4.664062 -12.585938 3.882812 -13.59375 3.3125 -14.75 C 2.75 -15.90625 2.46875 -17.132812 2.46875 -18.4375 L 2.46875 -21.28125 L 6.34375 -21.28125 L 6.34375 -18.4375 C 6.34375 -17.40625 6.601562 -16.457031 7.125 -15.59375 C 7.65625 -14.738281 8.363281 -14.046875 9.25 -13.515625 C 10.144531 -12.984375 11.109375 -12.648438 12.140625 -12.515625 L 18.5625 -21.28125 L 22.8125 -21.28125 L 15.890625 -11.890625 C 17.335938 -11.472656 18.582031 -10.828125 19.625 -9.953125 C 20.664062 -9.078125 21.476562 -8.03125 22.0625 -6.8125 C 22.644531 -5.601562 22.9375 -4.289062 22.9375 -2.875 L 22.9375 0 L 19.109375 0 L 19.109375 -2.875 C 19.109375 -3.988281 18.828125 -5 18.265625 -5.90625 C 17.710938 -6.8125 16.960938 -7.546875 16.015625 -8.109375 C 15.066406 -8.679688 13.984375 -9.023438 12.765625 -9.140625 L 6.09375 0 Z M 1.796875 0 "/></g></g></g><g fill="#000000" fill-opacity="1"><g transform="translate(95.863577, 47.647055)"><g><path d="M 4.34375 0.421875 C 3.59375 0.421875 2.941406 0.148438 2.390625 -0.390625 C 1.847656 -0.929688 1.578125 -1.582031 1.578125 -2.34375 C 1.578125 -3.09375 1.847656 -3.738281 2.390625 -4.28125 C 2.941406 -4.820312 3.59375 -5.09375 4.34375 -5.09375 C 5.09375 -5.09375 5.738281 -4.820312 6.28125 -4.28125 C 6.820312 -3.738281 7.09375 -3.09375 7.09375 -2.34375 C 7.09375 -1.832031 6.972656 -1.367188 6.734375 -0.953125 C 6.503906 -0.535156 6.175781 -0.203125 5.75 0.046875 C 5.332031 0.296875 4.863281 0.421875 4.34375 0.421875 Z M 4.34375 0.421875 "/></g></g></g><g fill="#000000" fill-opacity="1"><g transform="translate(103.620044, 47.647055)"><g><path d="M 13.8125 0.5 C 11.75 0.5 9.894531 0.0546875 8.25 -0.828125 C 6.613281 -1.722656 5.316406 -3.007812 4.359375 -4.6875 C 3.398438 -6.375 2.921875 -8.398438 2.921875 -10.765625 L 2.921875 -30.453125 L 6.765625 -30.453125 L 6.765625 -17.484375 L 6.84375 -17.484375 C 7.3125 -18.335938 7.925781 -19.082031 8.6875 -19.71875 C 9.457031 -20.363281 10.335938 -20.867188 11.328125 -21.234375 C 12.316406 -21.597656 13.351562 -21.78125 14.4375 -21.78125 C 16.40625 -21.78125 18.164062 -21.332031 19.71875 -20.4375 C 21.28125 -19.550781 22.515625 -18.289062 23.421875 -16.65625 C 24.328125 -15.03125 24.78125 -13.109375 24.78125 -10.890625 C 24.78125 -9.140625 24.507812 -7.5625 23.96875 -6.15625 C 23.425781 -4.75 22.664062 -3.546875 21.6875 -2.546875 C 20.71875 -1.546875 19.566406 -0.785156 18.234375 -0.265625 C 16.898438 0.242188 15.425781 0.5 13.8125 0.5 Z M 13.8125 -2.796875 C 15.113281 -2.796875 16.300781 -3.113281 17.375 -3.75 C 18.445312 -4.394531 19.300781 -5.300781 19.9375 -6.46875 C 20.582031 -7.632812 20.90625 -9.023438 20.90625 -10.640625 C 20.90625 -12.191406 20.59375 -13.550781 19.96875 -14.71875 C 19.34375 -15.894531 18.5 -16.816406 17.4375 -17.484375 C 16.382812 -18.148438 15.1875 -18.484375 13.84375 -18.484375 C 12.539062 -18.484375 11.351562 -18.160156 10.28125 -17.515625 C 9.207031 -16.878906 8.359375 -15.96875 7.734375 -14.78125 C 7.109375 -13.601562 6.796875 -12.207031 6.796875 -10.59375 C 6.796875 -9.007812 7.109375 -7.632812 7.734375 -6.46875 C 8.359375 -5.300781 9.207031 -4.394531 10.28125 -3.75 C 11.351562 -3.113281 12.53125 -2.796875 13.8125 -2.796875 Z M 13.8125 -2.796875 "/></g></g></g><g fill="#000000" fill-opacity="1"><g transform="translate(129.350451, 47.647055)"><g><path d="M 3.046875 0 L 3.046875 -21.28125 L 6.921875 -21.28125 L 6.921875 0 Z M 5 -24.65625 C 4.3125 -24.65625 3.707031 -24.910156 3.1875 -25.421875 C 2.675781 -25.941406 2.421875 -26.550781 2.421875 -27.25 C 2.421875 -27.945312 2.675781 -28.550781 3.1875 -29.0625 C 3.707031 -29.570312 4.3125 -29.828125 5 -29.828125 C 5.695312 -29.828125 6.300781 -29.570312 6.8125 -29.0625 C 7.332031 -28.550781 7.59375 -27.945312 7.59375 -27.25 C 7.59375 -26.550781 7.332031 -25.941406 6.8125 -25.421875 C 6.300781 -24.910156 5.695312 -24.65625 5 -24.65625 Z M 5 -24.65625 "/></g></g></g><g fill="#000000" fill-opacity="1"><g transform="translate(138.358, 47.647055)"><g><path d="M 13.0625 0.5 C 10.882812 0.5 8.960938 0.00390625 7.296875 -0.984375 C 5.628906 -1.972656 4.304688 -3.304688 3.328125 -4.984375 C 2.359375 -6.671875 1.875 -8.554688 1.875 -10.640625 C 1.875 -12.722656 2.359375 -14.601562 3.328125 -16.28125 C 4.304688 -17.96875 5.628906 -19.304688 7.296875 -20.296875 C 8.960938 -21.285156 10.882812 -21.78125 13.0625 -21.78125 C 15.226562 -21.78125 17.148438 -21.285156 18.828125 -20.296875 C 20.515625 -19.304688 21.835938 -17.976562 22.796875 -16.3125 C 23.753906 -14.644531 24.234375 -12.753906 24.234375 -10.640625 C 24.234375 -8.554688 23.753906 -6.671875 22.796875 -4.984375 C 21.835938 -3.304688 20.515625 -1.972656 18.828125 -0.984375 C 17.148438 0.00390625 15.226562 0.5 13.0625 0.5 Z M 13.0625 -2.796875 C 14.53125 -2.796875 15.804688 -3.140625 16.890625 -3.828125 C 17.972656 -4.523438 18.820312 -5.460938 19.4375 -6.640625 C 20.050781 -7.828125 20.359375 -9.160156 20.359375 -10.640625 C 20.359375 -12.109375 20.050781 -13.429688 19.4375 -14.609375 C 18.820312 -15.796875 17.972656 -16.738281 16.890625 -17.4375 C 15.804688 -18.132812 14.53125 -18.484375 13.0625 -18.484375 C 11.613281 -18.484375 10.335938 -18.132812 9.234375 -17.4375 C 8.140625 -16.738281 7.285156 -15.796875 6.671875 -14.609375 C 6.054688 -13.429688 5.75 -12.109375 5.75 -10.640625 C 5.75 -9.160156 6.054688 -7.828125 6.671875 -6.640625 C 7.285156 -5.460938 8.140625 -4.523438 9.234375 -3.828125 C 10.335938 -3.140625 11.613281 -2.796875 13.0625 -2.796875 Z M 13.0625 -2.796875 "/></g></g></g></svg>